<svg xmlns="http://www.w3.org/2000/svg" xmlns:xlink="http://www.w3.org/1999/xlink" width="1300" zoomAndPan="magnify" viewBox="0 0 974.88 135.000003" height="180" preserveAspectRatio="xMidYMid meet" version="1.0"><defs><g/></defs><g fill="#ff5757" fill-opacity="1"><g transform="translate(33.723216, 117.605114)"><g><path d="M 1.453125 -98.671875 C 1.453125 -100.421875 1.878906 -101.742188 2.734375 -102.640625 C 3.585938 -103.546875 4.632812 -104.179688 5.875 -104.546875 C 7.113281 -104.910156 8.34375 -105.101562 9.5625 -105.125 C 10.78125 -105.15625 11.78125 -105.171875 12.5625 -105.171875 L 31.40625 -105.171875 C 32.1875 -105.171875 33.179688 -105.15625 34.390625 -105.125 C 35.609375 -105.101562 36.835938 -104.910156 38.078125 -104.546875 C 39.328125 -104.179688 40.375 -103.546875 41.21875 -102.640625 C 42.070312 -101.742188 42.5 -100.421875 42.5 -98.671875 C 42.5 -96.765625 42.34375 -95.03125 42.03125 -93.46875 C 41.71875 -91.914062 41.300781 -90.347656 40.78125 -88.765625 C 40.269531 -87.179688 39.734375 -85.414062 39.171875 -83.46875 C 38.617188 -81.519531 38.085938 -79.234375 37.578125 -76.609375 C 37.066406 -73.984375 36.648438 -70.832031 36.328125 -67.15625 C 36.015625 -63.476562 35.859375 -59.109375 35.859375 -54.046875 L 35.859375 -30.453125 C 35.859375 -28.503906 35.929688 -26.765625 36.078125 -25.234375 C 36.222656 -23.703125 36.597656 -22.507812 37.203125 -21.65625 C 37.816406 -20.800781 38.804688 -20.375 40.171875 -20.375 C 43.722656 -20.375 46.875 -20.921875 49.625 -22.015625 C 52.375 -23.109375 54.851562 -24.457031 57.0625 -26.0625 C 59.28125 -27.675781 61.300781 -29.273438 63.125 -30.859375 C 64.957031 -32.441406 66.710938 -33.78125 68.390625 -34.875 C 70.066406 -35.96875 71.785156 -36.515625 73.546875 -36.515625 C 75.296875 -36.515625 76.535156 -36.0625 77.265625 -35.15625 C 77.992188 -34.257812 78.421875 -33.164062 78.546875 -31.875 C 78.671875 -30.582031 78.734375 -29.328125 78.734375 -28.109375 L 78.734375 -7.234375 C 78.734375 -5.085938 78.0625 -3.34375 76.71875 -2 C 75.375 -0.664062 73.632812 0 71.5 0 L 11.390625 0 C 10.609375 0 9.671875 -0.0078125 8.578125 -0.03125 C 7.484375 -0.0625 6.390625 -0.257812 5.296875 -0.625 C 4.203125 -0.988281 3.285156 -1.617188 2.546875 -2.515625 C 1.816406 -3.421875 1.453125 -4.75 1.453125 -6.5 C 1.453125 -8.976562 1.671875 -11.253906 2.109375 -13.328125 C 2.554688 -15.398438 3.109375 -17.566406 3.765625 -19.828125 C 4.421875 -22.085938 5.085938 -24.710938 5.765625 -27.703125 C 6.453125 -30.703125 7.015625 -34.320312 7.453125 -38.5625 C 7.890625 -42.800781 8.109375 -47.960938 8.109375 -54.046875 C 8.109375 -59.109375 7.945312 -63.476562 7.625 -67.15625 C 7.3125 -70.832031 6.898438 -73.984375 6.390625 -76.609375 C 5.878906 -79.234375 5.34375 -81.519531 4.78125 -83.46875 C 4.21875 -85.414062 3.679688 -87.179688 3.171875 -88.765625 C 2.660156 -90.347656 2.242188 -91.914062 1.921875 -93.46875 C 1.609375 -95.03125 1.453125 -96.765625 1.453125 -98.671875 Z M 1.453125 -98.671875 "/></g></g></g><g fill="#ff5757" fill-opacity="1"><g transform="translate(114.639732, 117.605114)"><g><path d="M 10.59375 0 C 8.976562 0 7.476562 -0.117188 6.09375 -0.359375 C 4.707031 -0.609375 3.585938 -1.097656 2.734375 -1.828125 C 1.878906 -2.554688 1.453125 -3.601562 1.453125 -4.96875 C 1.453125 -6.332031 1.644531 -7.488281 2.03125 -8.4375 C 2.425781 -9.382812 2.960938 -10.320312 3.640625 -11.25 C 4.328125 -12.175781 5.097656 -13.222656 5.953125 -14.390625 C 6.804688 -15.554688 7.671875 -17.015625 8.546875 -18.765625 C 9.421875 -20.515625 10.269531 -22.734375 11.09375 -25.421875 C 12.363281 -29.503906 13.4375 -33.03125 14.3125 -36 C 15.1875 -38.96875 15.953125 -41.582031 16.609375 -43.84375 C 17.265625 -46.113281 17.859375 -48.207031 18.390625 -50.125 C 18.929688 -52.050781 19.457031 -53.976562 19.96875 -55.90625 C 20.476562 -57.832031 21.050781 -59.9375 21.6875 -62.21875 C 22.320312 -64.507812 23.039062 -67.160156 23.84375 -70.171875 C 24.644531 -73.191406 25.628906 -76.75 26.796875 -80.84375 C 27.578125 -83.664062 28.125 -85.878906 28.4375 -87.484375 C 28.757812 -89.097656 28.941406 -90.425781 28.984375 -91.46875 C 29.035156 -92.519531 29.015625 -93.578125 28.921875 -94.640625 C 28.828125 -95.710938 28.726562 -97.101562 28.625 -98.8125 C 28.625 -99.195312 28.648438 -99.726562 28.703125 -100.40625 C 28.753906 -101.09375 28.945312 -101.800781 29.28125 -102.53125 C 29.625 -103.257812 30.207031 -103.878906 31.03125 -104.390625 C 31.863281 -104.910156 33.035156 -105.171875 34.546875 -105.171875 L 54.265625 -105.171875 C 55.722656 -105.171875 57 -105.144531 58.09375 -105.09375 C 59.1875 -105.039062 60.171875 -104.769531 61.046875 -104.28125 C 61.929688 -103.800781 62.773438 -102.925781 63.578125 -101.65625 C 64.378906 -100.394531 65.203125 -98.570312 66.046875 -96.1875 C 66.898438 -93.800781 67.863281 -90.660156 68.9375 -86.765625 C 70.300781 -81.992188 71.46875 -77.789062 72.4375 -74.15625 C 73.414062 -70.53125 74.296875 -67.269531 75.078125 -64.375 C 75.859375 -61.476562 76.613281 -58.675781 77.34375 -55.96875 C 78.070312 -53.269531 78.847656 -50.472656 79.671875 -47.578125 C 80.503906 -44.679688 81.441406 -41.457031 82.484375 -37.90625 C 83.535156 -34.351562 84.789062 -30.191406 86.25 -25.421875 C 87.070312 -22.734375 87.921875 -20.515625 88.796875 -18.765625 C 89.679688 -17.015625 90.546875 -15.554688 91.390625 -14.390625 C 92.242188 -13.222656 93.007812 -12.175781 93.6875 -11.25 C 94.375 -10.320312 94.910156 -9.382812 95.296875 -8.4375 C 95.691406 -7.488281 95.890625 -6.332031 95.890625 -4.96875 C 95.890625 -3.601562 95.460938 -2.554688 94.609375 -1.828125 C 93.753906 -1.097656 92.644531 -0.609375 91.28125 -0.359375 C 89.925781 -0.117188 88.421875 0 86.765625 0 L 59.890625 0 C 58.765625 0 57.65625 -0.15625 56.5625 -0.46875 C 55.46875 -0.789062 54.566406 -1.300781 53.859375 -2 C 53.148438 -2.707031 52.796875 -3.671875 52.796875 -4.890625 C 52.796875 -6.492188 52.929688 -7.769531 53.203125 -8.71875 C 53.472656 -9.675781 53.773438 -10.578125 54.109375 -11.421875 C 54.453125 -12.273438 54.757812 -13.320312 55.03125 -14.5625 C 55.300781 -15.8125 55.4375 -17.53125 55.4375 -19.71875 C 55.4375 -20.9375 55.363281 -22.226562 55.21875 -23.59375 L 36.515625 -23.59375 C 36.566406 -22.957031 36.640625 -22.320312 36.734375 -21.6875 C 36.828125 -21.050781 36.898438 -20.394531 36.953125 -19.71875 C 37.242188 -17.53125 37.597656 -15.8125 38.015625 -14.5625 C 38.429688 -13.320312 38.820312 -12.273438 39.1875 -11.421875 C 39.550781 -10.578125 39.863281 -9.675781 40.125 -8.71875 C 40.394531 -7.769531 40.53125 -6.492188 40.53125 -4.890625 C 40.53125 -3.671875 40.175781 -2.707031 39.46875 -2 C 38.769531 -1.300781 37.867188 -0.789062 36.765625 -0.46875 C 35.671875 -0.15625 34.566406 0 33.453125 0 Z M 36.65625 -48.5625 L 49.65625 -48.5625 C 49.03125 -50.800781 48.375 -53.175781 47.6875 -55.6875 C 47.007812 -58.195312 46.253906 -60.863281 45.421875 -63.6875 C 44.929688 -65.34375 44.441406 -66.726562 43.953125 -67.84375 C 43.472656 -68.96875 42.96875 -69.476562 42.4375 -69.375 C 41.945312 -69.332031 41.457031 -68.664062 40.96875 -67.375 C 40.476562 -66.082031 39.988281 -64.5 39.5 -62.625 C 39.019531 -60.75 38.570312 -58.820312 38.15625 -56.84375 C 37.738281 -54.875 37.410156 -53.132812 37.171875 -51.625 C 36.929688 -50.125 36.757812 -49.101562 36.65625 -48.5625 Z M 36.65625 -48.5625 "/></g></g></g><g fill="#ff5757" fill-opacity="1"><g transform="translate(211.987862, 117.605114)"><g/></g></g><g fill="#ff5757" fill-opacity="1"><g transform="translate(239.739023, 117.605114)"><g><path d="M -0.734375 -52.578125 C -0.734375 -58.472656 -0.285156 -64.109375 0.609375 -69.484375 C 1.515625 -74.867188 2.988281 -79.785156 5.03125 -84.234375 C 7.082031 -88.691406 9.8125 -92.578125 13.21875 -95.890625 C 16.625 -99.203125 20.820312 -101.757812 25.8125 -103.5625 C 30.800781 -105.363281 36.726562 -106.265625 43.59375 -106.265625 C 50.414062 -106.265625 56.148438 -105.445312 60.796875 -103.8125 C 65.441406 -102.1875 69.148438 -100.03125 71.921875 -97.34375 C 74.703125 -94.664062 76.710938 -91.742188 77.953125 -88.578125 C 79.203125 -85.421875 79.828125 -82.304688 79.828125 -79.234375 C 79.828125 -76.554688 79.300781 -74.109375 78.25 -71.890625 C 77.207031 -69.679688 75.832031 -67.769531 74.125 -66.15625 C 72.425781 -64.550781 70.53125 -63.3125 68.4375 -62.4375 C 66.34375 -61.5625 64.269531 -61.125 62.21875 -61.125 C 59.59375 -61.125 57.316406 -62 55.390625 -63.75 C 53.472656 -65.507812 52.515625 -68.3125 52.515625 -72.15625 C 52.515625 -74.976562 52.28125 -77.265625 51.8125 -79.015625 C 51.351562 -80.773438 50.488281 -82.054688 49.21875 -82.859375 C 47.957031 -83.660156 46.082031 -84.0625 43.59375 -84.0625 C 40.53125 -84.0625 37.988281 -83.242188 35.96875 -81.609375 C 33.945312 -79.984375 32.351562 -77.71875 31.1875 -74.8125 C 30.019531 -71.914062 29.175781 -68.566406 28.65625 -64.765625 C 28.144531 -60.972656 27.890625 -56.910156 27.890625 -52.578125 C 27.890625 -48.242188 28.144531 -44.175781 28.65625 -40.375 C 29.175781 -36.582031 30.019531 -33.25 31.1875 -30.375 C 32.351562 -27.507812 33.945312 -25.257812 35.96875 -23.625 C 37.988281 -21.988281 40.53125 -21.171875 43.59375 -21.171875 C 45.738281 -21.171875 47.210938 -21.925781 48.015625 -23.4375 C 48.816406 -24.945312 49.21875 -26.75 49.21875 -28.84375 C 49.21875 -30.894531 48.972656 -32.632812 48.484375 -34.0625 C 48.003906 -35.5 47.398438 -36.773438 46.671875 -37.890625 C 45.941406 -39.015625 45.207031 -40.078125 44.46875 -41.078125 C 43.738281 -42.078125 43.128906 -43.132812 42.640625 -44.25 C 42.160156 -45.375 41.921875 -46.691406 41.921875 -48.203125 C 41.921875 -49.859375 42.320312 -50.976562 43.125 -51.5625 C 43.925781 -52.144531 44.863281 -52.457031 45.9375 -52.5 C 47.007812 -52.550781 47.9375 -52.578125 48.71875 -52.578125 L 76.390625 -52.578125 C 77.953125 -52.578125 79.109375 -52.304688 79.859375 -51.765625 C 80.609375 -51.234375 81.101562 -50.628906 81.34375 -49.953125 C 81.59375 -49.273438 81.71875 -48.664062 81.71875 -48.125 C 81.71875 -47.25 81.4375 -46.164062 80.875 -44.875 C 80.320312 -43.582031 79.765625 -41.988281 79.203125 -40.09375 C 78.640625 -38.195312 78.359375 -35.859375 78.359375 -33.078125 C 78.359375 -30.453125 78.085938 -27.59375 77.546875 -24.5 C 77.015625 -21.40625 76.039062 -18.347656 74.625 -15.328125 C 73.21875 -12.316406 71.210938 -9.566406 68.609375 -7.078125 C 66.003906 -4.597656 62.671875 -2.613281 58.609375 -1.125 C 54.546875 0.351562 49.539062 1.09375 43.59375 1.09375 C 36.726562 1.09375 30.800781 0.191406 25.8125 -1.609375 C 20.820312 -3.410156 16.625 -5.960938 13.21875 -9.265625 C 9.8125 -12.578125 7.082031 -16.460938 5.03125 -20.921875 C 2.988281 -25.378906 1.515625 -30.296875 0.609375 -35.671875 C -0.285156 -41.054688 -0.734375 -46.691406 -0.734375 -52.578125 Z M -0.734375 -52.578125 "/></g></g></g><g fill="#ff5757" fill-opacity="1"><g transform="translate(320.728562, 117.605114)"><g><path d="M 1.453125 -98.515625 C 1.453125 -100.316406 1.878906 -101.679688 2.734375 -102.609375 C 3.585938 -103.535156 4.632812 -104.179688 5.875 -104.546875 C 7.113281 -104.910156 8.34375 -105.101562 9.5625 -105.125 C 10.78125 -105.15625 11.78125 -105.171875 12.5625 -105.171875 L 31.40625 -105.171875 C 32.1875 -105.171875 33.179688 -105.15625 34.390625 -105.125 C 35.609375 -105.101562 36.835938 -104.910156 38.078125 -104.546875 C 39.328125 -104.179688 40.375 -103.535156 41.21875 -102.609375 C 42.070312 -101.679688 42.5 -100.316406 42.5 -98.515625 C 42.5 -96.566406 42.34375 -94.773438 42.03125 -93.140625 C 41.71875 -91.515625 41.300781 -89.898438 40.78125 -88.296875 C 40.269531 -86.691406 39.734375 -84.890625 39.171875 -82.890625 C 38.617188 -80.890625 38.085938 -78.523438 37.578125 -75.796875 C 37.066406 -73.078125 36.648438 -69.828125 36.328125 -66.046875 C 36.015625 -62.273438 35.859375 -57.785156 35.859375 -52.578125 C 35.859375 -51.796875 35.820312 -50.476562 35.75 -48.625 C 35.675781 -46.78125 35.648438 -44.675781 35.671875 -42.3125 C 35.703125 -39.957031 35.863281 -37.550781 36.15625 -35.09375 C 36.445312 -32.632812 36.96875 -30.34375 37.71875 -28.21875 C 38.476562 -26.101562 39.535156 -24.398438 40.890625 -23.109375 C 42.253906 -21.816406 44.007812 -21.171875 46.15625 -21.171875 C 48.34375 -21.171875 50.101562 -21.816406 51.4375 -23.109375 C 52.78125 -24.398438 53.828125 -26.101562 54.578125 -28.21875 C 55.335938 -30.34375 55.863281 -32.632812 56.15625 -35.09375 C 56.445312 -37.550781 56.601562 -39.957031 56.625 -42.3125 C 56.65625 -44.675781 56.632812 -46.78125 56.5625 -48.625 C 56.488281 -50.476562 56.453125 -51.796875 56.453125 -52.578125 C 56.453125 -57.785156 56.289062 -62.273438 55.96875 -66.046875 C 55.65625 -69.828125 55.242188 -73.078125 54.734375 -75.796875 C 54.222656 -78.523438 53.6875 -80.890625 53.125 -82.890625 C 52.570312 -84.890625 52.035156 -86.691406 51.515625 -88.296875 C 51.003906 -89.898438 50.59375 -91.515625 50.28125 -93.140625 C 49.96875 -94.773438 49.8125 -96.566406 49.8125 -98.515625 C 49.8125 -100.316406 50.234375 -101.679688 51.078125 -102.609375 C 51.929688 -103.535156 52.976562 -104.179688 54.21875 -104.546875 C 55.46875 -104.910156 56.695312 -105.101562 57.90625 -105.125 C 59.125 -105.15625 60.125 -105.171875 60.90625 -105.171875 L 79.75 -105.171875 C 80.53125 -105.171875 81.523438 -105.15625 82.734375 -105.125 C 83.953125 -105.101562 85.179688 -104.910156 86.421875 -104.546875 C 87.671875 -104.179688 88.71875 -103.535156 89.5625 -102.609375 C 90.414062 -101.679688 90.84375 -100.316406 90.84375 -98.515625 C 90.84375 -96.566406 90.6875 -94.773438 90.375 -93.140625 C 90.0625 -91.515625 89.648438 -89.898438 89.140625 -88.296875 C 88.628906 -86.691406 88.09375 -84.890625 87.53125 -82.890625 C 86.96875 -80.890625 86.429688 -78.523438 85.921875 -75.796875 C 85.410156 -73.078125 84.992188 -69.828125 84.671875 -66.046875 C 84.359375 -62.273438 84.203125 -57.785156 84.203125 -52.578125 C 84.203125 -49.898438 84.210938 -47.1875 84.234375 -44.4375 C 84.265625 -41.6875 84.28125 -39.046875 84.28125 -36.515625 C 84.28125 -31.359375 83.671875 -26.503906 82.453125 -21.953125 C 81.234375 -17.398438 79.1875 -13.394531 76.3125 -9.9375 C 73.445312 -6.476562 69.550781 -3.773438 64.625 -1.828125 C 59.707031 0.117188 53.550781 1.09375 46.15625 1.09375 C 38.757812 1.09375 32.597656 0.117188 27.671875 -1.828125 C 22.753906 -3.773438 18.859375 -6.476562 15.984375 -9.9375 C 13.117188 -13.394531 11.078125 -17.398438 9.859375 -21.953125 C 8.640625 -26.503906 8.03125 -31.359375 8.03125 -36.515625 C 8.03125 -39.046875 8.039062 -41.6875 8.0625 -44.4375 C 8.09375 -47.1875 8.109375 -49.898438 8.109375 -52.578125 C 8.109375 -57.785156 7.945312 -62.273438 7.625 -66.046875 C 7.3125 -69.828125 6.898438 -73.078125 6.390625 -75.796875 C 5.878906 -78.523438 5.34375 -80.890625 4.78125 -82.890625 C 4.21875 -84.890625 3.679688 -86.691406 3.171875 -88.296875 C 2.660156 -89.898438 2.242188 -91.515625 1.921875 -93.140625 C 1.609375 -94.773438 1.453125 -96.566406 1.453125 -98.515625 Z M 1.453125 -98.515625 "/></g></g></g><g fill="#ff5757" fill-opacity="1"><g transform="translate(413.037648, 117.605114)"><g><path d="M 8.109375 -52.578125 C 8.109375 -57.785156 7.945312 -62.273438 7.625 -66.046875 C 7.3125 -69.828125 6.898438 -73.078125 6.390625 -75.796875 C 5.878906 -78.523438 5.34375 -80.890625 4.78125 -82.890625 C 4.21875 -84.890625 3.679688 -86.691406 3.171875 -88.296875 C 2.660156 -89.898438 2.242188 -91.515625 1.921875 -93.140625 C 1.609375 -94.773438 1.453125 -96.566406 1.453125 -98.515625 C 1.453125 -100.316406 1.878906 -101.679688 2.734375 -102.609375 C 3.585938 -103.535156 4.632812 -104.179688 5.875 -104.546875 C 7.113281 -104.910156 8.34375 -105.101562 9.5625 -105.125 C 10.78125 -105.15625 11.78125 -105.171875 12.5625 -105.171875 L 31.40625 -105.171875 C 32.1875 -105.171875 33.179688 -105.15625 34.390625 -105.125 C 35.609375 -105.101562 36.835938 -104.910156 38.078125 -104.546875 C 39.328125 -104.179688 40.375 -103.535156 41.21875 -102.609375 C 42.070312 -101.679688 42.5 -100.316406 42.5 -98.515625 C 42.5 -96.566406 42.34375 -94.773438 42.03125 -93.140625 C 41.71875 -91.515625 41.300781 -89.898438 40.78125 -88.296875 C 40.269531 -86.691406 39.734375 -84.890625 39.171875 -82.890625 C 38.617188 -80.890625 38.085938 -78.523438 37.578125 -75.796875 C 37.066406 -73.078125 36.648438 -69.828125 36.328125 -66.046875 C 36.015625 -62.273438 35.859375 -57.785156 35.859375 -52.578125 C 35.859375 -47.367188 36.015625 -42.878906 36.328125 -39.109375 C 36.648438 -35.335938 37.066406 -32.085938 37.578125 -29.359375 C 38.085938 -26.628906 38.617188 -24.265625 39.171875 -22.265625 C 39.734375 -20.273438 40.269531 -18.472656 40.78125 -16.859375 C 41.300781 -15.253906 41.71875 -13.648438 42.03125 -12.046875 C 42.34375 -10.441406 42.5 -8.640625 42.5 -6.640625 C 42.5 -4.835938 42.070312 -3.472656 41.21875 -2.546875 C 40.375 -1.628906 39.328125 -0.988281 38.078125 -0.625 C 36.835938 -0.257812 35.609375 -0.0625 34.390625 -0.03125 C 33.179688 -0.0078125 32.1875 0 31.40625 0 L 12.5625 0 C 11.78125 0 10.78125 -0.0078125 9.5625 -0.03125 C 8.34375 -0.0625 7.113281 -0.257812 5.875 -0.625 C 4.632812 -0.988281 3.585938 -1.628906 2.734375 -2.546875 C 1.878906 -3.472656 1.453125 -4.835938 1.453125 -6.640625 C 1.453125 -8.640625 1.609375 -10.441406 1.921875 -12.046875 C 2.242188 -13.648438 2.660156 -15.253906 3.171875 -16.859375 C 3.679688 -18.472656 4.21875 -20.273438 4.78125 -22.265625 C 5.34375 -24.265625 5.878906 -26.628906 6.390625 -29.359375 C 6.898438 -32.085938 7.3125 -35.335938 7.625 -39.109375 C 7.945312 -42.878906 8.109375 -47.367188 8.109375 -52.578125 Z M 8.109375 -52.578125 "/></g></g></g><g fill="#ff5757" fill-opacity="1"><g transform="translate(457.001312, 117.605114)"><g><path d="M 12.5625 0 C 11.78125 0 10.78125 -0.0078125 9.5625 -0.03125 C 8.34375 -0.0625 7.113281 -0.257812 5.875 -0.625 C 4.632812 -0.988281 3.585938 -1.628906 2.734375 -2.546875 C 1.878906 -3.472656 1.453125 -4.835938 1.453125 -6.640625 C 1.453125 -8.640625 1.609375 -10.441406 1.921875 -12.046875 C 2.242188 -13.648438 2.660156 -15.253906 3.171875 -16.859375 C 3.679688 -18.472656 4.21875 -20.273438 4.78125 -22.265625 C 5.34375 -24.265625 5.878906 -26.628906 6.390625 -29.359375 C 6.898438 -32.085938 7.3125 -35.335938 7.625 -39.109375 C 7.945312 -42.878906 8.109375 -47.367188 8.109375 -52.578125 C 8.109375 -57.785156 7.945312 -62.273438 7.625 -66.046875 C 7.3125 -69.828125 6.898438 -73.078125 6.390625 -75.796875 C 5.878906 -78.523438 5.34375 -80.890625 4.78125 -82.890625 C 4.21875 -84.890625 3.679688 -86.691406 3.171875 -88.296875 C 2.660156 -89.898438 2.242188 -91.515625 1.921875 -93.140625 C 1.609375 -94.773438 1.453125 -96.566406 1.453125 -98.515625 C 1.453125 -100.316406 1.878906 -101.679688 2.734375 -102.609375 C 3.585938 -103.535156 4.632812 -104.179688 5.875 -104.546875 C 7.113281 -104.910156 8.34375 -105.101562 9.5625 -105.125 C 10.78125 -105.15625 11.78125 -105.171875 12.5625 -105.171875 L 40.015625 -105.171875 C 46.785156 -105.171875 52.75 -103.898438 57.90625 -101.359375 C 63.070312 -98.828125 67.394531 -95.238281 70.875 -90.59375 C 74.351562 -85.945312 76.984375 -80.410156 78.765625 -73.984375 C 80.546875 -67.554688 81.4375 -60.445312 81.4375 -52.65625 C 81.4375 -44.863281 80.546875 -37.742188 78.765625 -31.296875 C 76.984375 -24.847656 74.351562 -19.285156 70.875 -14.609375 C 67.394531 -9.929688 63.070312 -6.328125 57.90625 -3.796875 C 52.75 -1.265625 46.785156 0 40.015625 0 Z M 35.859375 -79.015625 L 35.859375 -26.296875 C 35.859375 -24.828125 36.078125 -23.726562 36.515625 -23 C 36.953125 -22.269531 37.5 -21.78125 38.15625 -21.53125 C 38.8125 -21.289062 39.429688 -21.171875 40.015625 -21.171875 C 41.921875 -21.171875 43.675781 -22.023438 45.28125 -23.734375 C 46.882812 -25.441406 48.28125 -27.765625 49.46875 -30.703125 C 50.664062 -33.648438 51.59375 -37.007812 52.25 -40.78125 C 52.90625 -44.5625 53.234375 -48.519531 53.234375 -52.65625 C 53.234375 -56.789062 52.90625 -60.742188 52.25 -64.515625 C 51.59375 -68.296875 50.664062 -71.65625 49.46875 -74.59375 C 48.28125 -77.539062 46.882812 -79.863281 45.28125 -81.5625 C 43.675781 -83.269531 41.921875 -84.125 40.015625 -84.125 C 39.429688 -84.125 38.8125 -84.003906 38.15625 -83.765625 C 37.5 -83.523438 36.953125 -83.035156 36.515625 -82.296875 C 36.078125 -81.566406 35.859375 -80.472656 35.859375 -79.015625 Z M 35.859375 -79.015625 "/></g></g></g><g fill="#ff5757" fill-opacity="1"><g transform="translate(537.698764, 117.605114)"><g><path d="M 10.59375 0 C 8.976562 0 7.476562 -0.117188 6.09375 -0.359375 C 4.707031 -0.609375 3.585938 -1.097656 2.734375 -1.828125 C 1.878906 -2.554688 1.453125 -3.601562 1.453125 -4.96875 C 1.453125 -6.332031 1.644531 -7.488281 2.03125 -8.4375 C 2.425781 -9.382812 2.960938 -10.320312 3.640625 -11.25 C 4.328125 -12.175781 5.097656 -13.222656 5.953125 -14.390625 C 6.804688 -15.554688 7.671875 -17.015625 8.546875 -18.765625 C 9.421875 -20.515625 10.269531 -22.734375 11.09375 -25.421875 C 12.363281 -29.503906 13.4375 -33.03125 14.3125 -36 C 15.1875 -38.96875 15.953125 -41.582031 16.609375 -43.84375 C 17.265625 -46.113281 17.859375 -48.207031 18.390625 -50.125 C 18.929688 -52.050781 19.457031 -53.976562 19.96875 -55.90625 C 20.476562 -57.832031 21.050781 -59.9375 21.6875 -62.21875 C 22.320312 -64.507812 23.039062 -67.160156 23.84375 -70.171875 C 24.644531 -73.191406 25.628906 -76.75 26.796875 -80.84375 C 27.578125 -83.664062 28.125 -85.878906 28.4375 -87.484375 C 28.757812 -89.097656 28.941406 -90.425781 28.984375 -91.46875 C 29.035156 -92.519531 29.015625 -93.578125 28.921875 -94.640625 C 28.828125 -95.710938 28.726562 -97.101562 28.625 -98.8125 C 28.625 -99.195312 28.648438 -99.726562 28.703125 -100.40625 C 28.753906 -101.09375 28.945312 -101.800781 29.28125 -102.53125 C 29.625 -103.257812 30.207031 -103.878906 31.03125 -104.390625 C 31.863281 -104.910156 33.035156 -105.171875 34.546875 -105.171875 L 54.265625 -105.171875 C 55.722656 -105.171875 57 -105.144531 58.09375 -105.09375 C 59.1875 -105.039062 60.171875 -104.769531 61.046875 -104.28125 C 61.929688 -103.800781 62.773438 -102.925781 63.578125 -101.65625 C 64.378906 -100.394531 65.203125 -98.570312 66.046875 -96.1875 C 66.898438 -93.800781 67.863281 -90.660156 68.9375 -86.765625 C 70.300781 -81.992188 71.46875 -77.789062 72.4375 -74.15625 C 73.414062 -70.53125 74.296875 -67.269531 75.078125 -64.375 C 75.859375 -61.476562 76.613281 -58.675781 77.34375 -55.96875 C 78.070312 -53.269531 78.847656 -50.472656 79.671875 -47.578125 C 80.503906 -44.679688 81.441406 -41.457031 82.484375 -37.90625 C 83.535156 -34.351562 84.789062 -30.191406 86.25 -25.421875 C 87.070312 -22.734375 87.921875 -20.515625 88.796875 -18.765625 C 89.679688 -17.015625 90.546875 -15.554688 91.390625 -14.390625 C 92.242188 -13.222656 93.007812 -12.175781 93.6875 -11.25 C 94.375 -10.320312 94.910156 -9.382812 95.296875 -8.4375 C 95.691406 -7.488281 95.890625 -6.332031 95.890625 -4.96875 C 95.890625 -3.601562 95.460938 -2.554688 94.609375 -1.828125 C 93.753906 -1.097656 92.644531 -0.609375 91.28125 -0.359375 C 89.925781 -0.117188 88.421875 0 86.765625 0 L 59.890625 0 C 58.765625 0 57.65625 -0.15625 56.5625 -0.46875 C 55.46875 -0.789062 54.566406 -1.300781 53.859375 -2 C 53.148438 -2.707031 52.796875 -3.671875 52.796875 -4.890625 C 52.796875 -6.492188 52.929688 -7.769531 53.203125 -8.71875 C 53.472656 -9.675781 53.773438 -10.578125 54.109375 -11.421875 C 54.453125 -12.273438 54.757812 -13.320312 55.03125 -14.5625 C 55.300781 -15.8125 55.4375 -17.53125 55.4375 -19.71875 C 55.4375 -20.9375 55.363281 -22.226562 55.21875 -23.59375 L 36.515625 -23.59375 C 36.566406 -22.957031 36.640625 -22.320312 36.734375 -21.6875 C 36.828125 -21.050781 36.898438 -20.394531 36.953125 -19.71875 C 37.242188 -17.53125 37.597656 -15.8125 38.015625 -14.5625 C 38.429688 -13.320312 38.820312 -12.273438 39.1875 -11.421875 C 39.550781 -10.578125 39.863281 -9.675781 40.125 -8.71875 C 40.394531 -7.769531 40.53125 -6.492188 40.53125 -4.890625 C 40.53125 -3.671875 40.175781 -2.707031 39.46875 -2 C 38.769531 -1.300781 37.867188 -0.789062 36.765625 -0.46875 C 35.671875 -0.15625 34.566406 0 33.453125 0 Z M 36.65625 -48.5625 L 49.65625 -48.5625 C 49.03125 -50.800781 48.375 -53.175781 47.6875 -55.6875 C 47.007812 -58.195312 46.253906 -60.863281 45.421875 -63.6875 C 44.929688 -65.34375 44.441406 -66.726562 43.953125 -67.84375 C 43.472656 -68.96875 42.96875 -69.476562 42.4375 -69.375 C 41.945312 -69.332031 41.457031 -68.664062 40.96875 -67.375 C 40.476562 -66.082031 39.988281 -64.5 39.5 -62.625 C 39.019531 -60.75 38.570312 -58.820312 38.15625 -56.84375 C 37.738281 -54.875 37.410156 -53.132812 37.171875 -51.625 C 36.929688 -50.125 36.757812 -49.101562 36.65625 -48.5625 Z M 36.65625 -48.5625 "/></g></g></g><g fill="#ff5757" fill-opacity="1"><g transform="translate(635.046894, 117.605114)"><g/></g></g><g fill="#ff5757" fill-opacity="1"><g transform="translate(662.79801, 117.605114)"><g><path d="M 12.5625 0 C 11.78125 0 10.78125 -0.0078125 9.5625 -0.03125 C 8.34375 -0.0625 7.113281 -0.257812 5.875 -0.625 C 4.632812 -0.988281 3.585938 -1.628906 2.734375 -2.546875 C 1.878906 -3.472656 1.453125 -4.835938 1.453125 -6.640625 C 1.453125 -8.640625 1.609375 -10.441406 1.921875 -12.046875 C 2.242188 -13.648438 2.660156 -15.253906 3.171875 -16.859375 C 3.679688 -18.472656 4.21875 -20.273438 4.78125 -22.265625 C 5.34375 -24.265625 5.878906 -26.628906 6.390625 -29.359375 C 6.898438 -32.085938 7.3125 -35.335938 7.625 -39.109375 C 7.945312 -42.878906 8.109375 -47.367188 8.109375 -52.578125 C 8.109375 -57.785156 7.945312 -62.273438 7.625 -66.046875 C 7.3125 -69.828125 6.898438 -73.078125 6.390625 -75.796875 C 5.878906 -78.523438 5.34375 -80.890625 4.78125 -82.890625 C 4.21875 -84.890625 3.679688 -86.691406 3.171875 -88.296875 C 2.660156 -89.898438 2.242188 -91.515625 1.921875 -93.140625 C 1.609375 -94.773438 1.453125 -96.566406 1.453125 -98.515625 C 1.453125 -100.316406 1.878906 -101.679688 2.734375 -102.609375 C 3.585938 -103.535156 4.632812 -104.179688 5.875 -104.546875 C 7.113281 -104.910156 8.34375 -105.101562 9.5625 -105.125 C 10.78125 -105.15625 11.78125 -105.171875 12.5625 -105.171875 L 40.015625 -105.171875 C 46.785156 -105.171875 52.75 -103.898438 57.90625 -101.359375 C 63.070312 -98.828125 67.394531 -95.238281 70.875 -90.59375 C 74.351562 -85.945312 76.984375 -80.410156 78.765625 -73.984375 C 80.546875 -67.554688 81.4375 -60.445312 81.4375 -52.65625 C 81.4375 -44.863281 80.546875 -37.742188 78.765625 -31.296875 C 76.984375 -24.847656 74.351562 -19.285156 70.875 -14.609375 C 67.394531 -9.929688 63.070312 -6.328125 57.90625 -3.796875 C 52.75 -1.265625 46.785156 0 40.015625 0 Z M 35.859375 -79.015625 L 35.859375 -26.296875 C 35.859375 -24.828125 36.078125 -23.726562 36.515625 -23 C 36.953125 -22.269531 37.5 -21.78125 38.15625 -21.53125 C 38.8125 -21.289062 39.429688 -21.171875 40.015625 -21.171875 C 41.921875 -21.171875 43.675781 -22.023438 45.28125 -23.734375 C 46.882812 -25.441406 48.28125 -27.765625 49.46875 -30.703125 C 50.664062 -33.648438 51.59375 -37.007812 52.25 -40.78125 C 52.90625 -44.5625 53.234375 -48.519531 53.234375 -52.65625 C 53.234375 -56.789062 52.90625 -60.742188 52.25 -64.515625 C 51.59375 -68.296875 50.664062 -71.65625 49.46875 -74.59375 C 48.28125 -77.539062 46.882812 -79.863281 45.28125 -81.5625 C 43.675781 -83.269531 41.921875 -84.125 40.015625 -84.125 C 39.429688 -84.125 38.8125 -84.003906 38.15625 -83.765625 C 37.5 -83.523438 36.953125 -83.035156 36.515625 -82.296875 C 36.078125 -81.566406 35.859375 -80.472656 35.859375 -79.015625 Z M 35.859375 -79.015625 "/></g></g></g><g fill="#ff5757" fill-opacity="1"><g transform="translate(743.495461, 117.605114)"><g><path d="M 8.109375 -52.578125 C 8.109375 -57.785156 7.945312 -62.273438 7.625 -66.046875 C 7.3125 -69.828125 6.898438 -73.078125 6.390625 -75.796875 C 5.878906 -78.523438 5.34375 -80.890625 4.78125 -82.890625 C 4.21875 -84.890625 3.679688 -86.691406 3.171875 -88.296875 C 2.660156 -89.898438 2.242188 -91.515625 1.921875 -93.140625 C 1.609375 -94.773438 1.453125 -96.566406 1.453125 -98.515625 C 1.453125 -100.316406 1.878906 -101.679688 2.734375 -102.609375 C 3.585938 -103.535156 4.632812 -104.179688 5.875 -104.546875 C 7.113281 -104.910156 8.34375 -105.101562 9.5625 -105.125 C 10.78125 -105.15625 11.78125 -105.171875 12.5625 -105.171875 L 31.40625 -105.171875 C 32.1875 -105.171875 33.179688 -105.15625 34.390625 -105.125 C 35.609375 -105.101562 36.835938 -104.910156 38.078125 -104.546875 C 39.328125 -104.179688 40.375 -103.535156 41.21875 -102.609375 C 42.070312 -101.679688 42.5 -100.316406 42.5 -98.515625 C 42.5 -96.566406 42.34375 -94.773438 42.03125 -93.140625 C 41.71875 -91.515625 41.300781 -89.898438 40.78125 -88.296875 C 40.269531 -86.691406 39.734375 -84.890625 39.171875 -82.890625 C 38.617188 -80.890625 38.085938 -78.523438 37.578125 -75.796875 C 37.066406 -73.078125 36.648438 -69.828125 36.328125 -66.046875 C 36.015625 -62.273438 35.859375 -57.785156 35.859375 -52.578125 C 35.859375 -47.367188 36.015625 -42.878906 36.328125 -39.109375 C 36.648438 -35.335938 37.066406 -32.085938 37.578125 -29.359375 C 38.085938 -26.628906 38.617188 -24.265625 39.171875 -22.265625 C 39.734375 -20.273438 40.269531 -18.472656 40.78125 -16.859375 C 41.300781 -15.253906 41.71875 -13.648438 42.03125 -12.046875 C 42.34375 -10.441406 42.5 -8.640625 42.5 -6.640625 C 42.5 -4.835938 42.070312 -3.472656 41.21875 -2.546875 C 40.375 -1.628906 39.328125 -0.988281 38.078125 -0.625 C 36.835938 -0.257812 35.609375 -0.0625 34.390625 -0.03125 C 33.179688 -0.0078125 32.1875 0 31.40625 0 L 12.5625 0 C 11.78125 0 10.78125 -0.0078125 9.5625 -0.03125 C 8.34375 -0.0625 7.113281 -0.257812 5.875 -0.625 C 4.632812 -0.988281 3.585938 -1.628906 2.734375 -2.546875 C 1.878906 -3.472656 1.453125 -4.835938 1.453125 -6.640625 C 1.453125 -8.640625 1.609375 -10.441406 1.921875 -12.046875 C 2.242188 -13.648438 2.660156 -15.253906 3.171875 -16.859375 C 3.679688 -18.472656 4.21875 -20.273438 4.78125 -22.265625 C 5.34375 -24.265625 5.878906 -26.628906 6.390625 -29.359375 C 6.898438 -32.085938 7.3125 -35.335938 7.625 -39.109375 C 7.945312 -42.878906 8.109375 -47.367188 8.109375 -52.578125 Z M 8.109375 -52.578125 "/></g></g></g><g fill="#000000" fill-opacity="1"><g transform="translate(787.468035, 117.605114)"><g/></g></g><g fill="#ff5757" fill-opacity="1"><g transform="translate(815.223376, 117.605114)"><g><path d="M 1.453125 -6.5 C 1.453125 -8.976562 1.671875 -11.253906 2.109375 -13.328125 C 2.554688 -15.398438 3.109375 -17.566406 3.765625 -19.828125 C 4.421875 -22.085938 5.085938 -24.710938 5.765625 -27.703125 C 6.453125 -30.703125 7.015625 -34.320312 7.453125 -38.5625 C 7.890625 -42.800781 8.109375 -47.960938 8.109375 -54.046875 C 8.109375 -59.109375 7.945312 -63.476562 7.625 -67.15625 C 7.3125 -70.832031 6.898438 -73.984375 6.390625 -76.609375 C 5.878906 -79.234375 5.34375 -81.519531 4.78125 -83.46875 C 4.21875 -85.414062 3.679688 -87.179688 3.171875 -88.765625 C 2.660156 -90.347656 2.242188 -91.914062 1.921875 -93.46875 C 1.609375 -95.03125 1.453125 -96.765625 1.453125 -98.671875 C 1.453125 -100.421875 1.878906 -101.742188 2.734375 -102.640625 C 3.585938 -103.546875 4.632812 -104.179688 5.875 -104.546875 C 7.113281 -104.910156 8.34375 -105.101562 9.5625 -105.125 C 10.78125 -105.15625 11.78125 -105.171875 12.5625 -105.171875 L 54.109375 -105.171875 C 59.128906 -105.171875 63.570312 -104.160156 67.4375 -102.140625 C 71.3125 -100.117188 74.351562 -97.28125 76.5625 -93.625 C 78.78125 -89.976562 79.890625 -85.71875 79.890625 -80.84375 C 79.890625 -78.75 79.609375 -76.601562 79.046875 -74.40625 C 78.492188 -72.21875 77.570312 -70.113281 76.28125 -68.09375 C 74.988281 -66.082031 73.28125 -64.285156 71.15625 -62.703125 C 69.039062 -61.117188 66.425781 -59.910156 63.3125 -59.078125 C 62.101562 -58.742188 61.5 -58.28125 61.5 -57.6875 C 61.5 -57.300781 61.984375 -56.890625 62.953125 -56.453125 C 63.921875 -56.015625 65.160156 -55.46875 66.671875 -54.8125 C 68.179688 -54.15625 69.800781 -53.226562 71.53125 -52.03125 C 73.257812 -50.84375 74.878906 -49.296875 76.390625 -47.390625 C 77.898438 -45.492188 79.140625 -43.109375 80.109375 -40.234375 C 81.085938 -37.367188 81.578125 -33.863281 81.578125 -29.71875 C 81.578125 -27.1875 81.222656 -24.546875 80.515625 -21.796875 C 79.804688 -19.046875 78.6875 -16.378906 77.15625 -13.796875 C 75.625 -11.222656 73.59375 -8.890625 71.0625 -6.796875 C 68.53125 -4.703125 65.4375 -3.046875 61.78125 -1.828125 C 58.132812 -0.609375 53.851562 0 48.9375 0 L 11.390625 0 C 10.609375 0 9.671875 -0.0078125 8.578125 -0.03125 C 7.484375 -0.0625 6.390625 -0.257812 5.296875 -0.625 C 4.203125 -0.988281 3.285156 -1.617188 2.546875 -2.515625 C 1.816406 -3.421875 1.453125 -4.75 1.453125 -6.5 Z M 35.71875 -26.4375 C 35.71875 -24.34375 36.101562 -22.941406 36.875 -22.234375 C 37.65625 -21.523438 38.726562 -21.171875 40.09375 -21.171875 C 42.476562 -21.171875 44.425781 -21.632812 45.9375 -22.5625 C 47.445312 -23.488281 48.625 -24.65625 49.46875 -26.0625 C 50.320312 -27.476562 50.921875 -28.941406 51.265625 -30.453125 C 51.609375 -31.960938 51.78125 -33.300781 51.78125 -34.46875 C 51.78125 -35.632812 51.609375 -36.984375 51.265625 -38.515625 C 50.921875 -40.054688 50.320312 -41.53125 49.46875 -42.9375 C 48.625 -44.351562 47.445312 -45.519531 45.9375 -46.4375 C 44.425781 -47.363281 42.476562 -47.828125 40.09375 -47.828125 C 38.726562 -47.828125 37.65625 -47.488281 36.875 -46.8125 C 36.101562 -46.132812 35.71875 -44.722656 35.71875 -42.578125 C 35.71875 -42.085938 35.726562 -41.296875 35.75 -40.203125 C 35.769531 -39.109375 35.789062 -38.015625 35.8125 -36.921875 C 35.84375 -35.828125 35.859375 -35.007812 35.859375 -34.46875 C 35.859375 -33.976562 35.84375 -33.1875 35.8125 -32.09375 C 35.789062 -31 35.769531 -29.914062 35.75 -28.84375 C 35.726562 -27.769531 35.71875 -26.96875 35.71875 -26.4375 Z M 35.71875 -68.71875 C 35.71875 -67.207031 36.101562 -66.195312 36.875 -65.6875 C 37.65625 -65.175781 38.726562 -64.921875 40.09375 -64.921875 C 42.476562 -64.921875 44.425781 -65.25 45.9375 -65.90625 C 47.445312 -66.5625 48.625 -67.398438 49.46875 -68.421875 C 50.320312 -69.453125 50.921875 -70.5 51.265625 -71.5625 C 51.609375 -72.632812 51.78125 -73.609375 51.78125 -74.484375 C 51.78125 -75.316406 51.609375 -76.28125 51.265625 -77.375 C 50.921875 -78.46875 50.320312 -79.523438 49.46875 -80.546875 C 48.625 -81.578125 47.445312 -82.421875 45.9375 -83.078125 C 44.425781 -83.734375 42.476562 -84.0625 40.09375 -84.0625 C 38.726562 -84.0625 37.65625 -83.804688 36.875 -83.296875 C 36.101562 -82.785156 35.71875 -81.773438 35.71875 -80.265625 Z M 35.71875 -68.71875 "/></g></g></g><g fill="#ff5757" fill-opacity="1"><g transform="translate(897.162311, 117.605114)"><g><path d="M 8.109375 -52.578125 C 8.109375 -57.785156 7.945312 -62.273438 7.625 -66.046875 C 7.3125 -69.828125 6.898438 -73.078125 6.390625 -75.796875 C 5.878906 -78.523438 5.34375 -80.890625 4.78125 -82.890625 C 4.21875 -84.890625 3.679688 -86.691406 3.171875 -88.296875 C 2.660156 -89.898438 2.242188 -91.515625 1.921875 -93.140625 C 1.609375 -94.773438 1.453125 -96.566406 1.453125 -98.515625 C 1.453125 -100.316406 1.878906 -101.679688 2.734375 -102.609375 C 3.585938 -103.535156 4.632812 -104.179688 5.875 -104.546875 C 7.113281 -104.910156 8.34375 -105.101562 9.5625 -105.125 C 10.78125 -105.15625 11.78125 -105.171875 12.5625 -105.171875 L 31.40625 -105.171875 C 32.1875 -105.171875 33.179688 -105.15625 34.390625 -105.125 C 35.609375 -105.101562 36.835938 -104.910156 38.078125 -104.546875 C 39.328125 -104.179688 40.375 -103.535156 41.21875 -102.609375 C 42.070312 -101.679688 42.5 -100.316406 42.5 -98.515625 C 42.5 -96.566406 42.34375 -94.773438 42.03125 -93.140625 C 41.71875 -91.515625 41.300781 -89.898438 40.78125 -88.296875 C 40.269531 -86.691406 39.734375 -84.890625 39.171875 -82.890625 C 38.617188 -80.890625 38.085938 -78.523438 37.578125 -75.796875 C 37.066406 -73.078125 36.648438 -69.828125 36.328125 -66.046875 C 36.015625 -62.273438 35.859375 -57.785156 35.859375 -52.578125 C 35.859375 -47.367188 36.015625 -42.878906 36.328125 -39.109375 C 36.648438 -35.335938 37.066406 -32.085938 37.578125 -29.359375 C 38.085938 -26.628906 38.617188 -24.265625 39.171875 -22.265625 C 39.734375 -20.273438 40.269531 -18.472656 40.78125 -16.859375 C 41.300781 -15.253906 41.71875 -13.648438 42.03125 -12.046875 C 42.34375 -10.441406 42.5 -8.640625 42.5 -6.640625 C 42.5 -4.835938 42.070312 -3.472656 41.21875 -2.546875 C 40.375 -1.628906 39.328125 -0.988281 38.078125 -0.625 C 36.835938 -0.257812 35.609375 -0.0625 34.390625 -0.03125 C 33.179688 -0.0078125 32.1875 0 31.40625 0 L 12.5625 0 C 11.78125 0 10.78125 -0.0078125 9.5625 -0.03125 C 8.34375 -0.0625 7.113281 -0.257812 5.875 -0.625 C 4.632812 -0.988281 3.585938 -1.628906 2.734375 -2.546875 C 1.878906 -3.472656 1.453125 -4.835938 1.453125 -6.640625 C 1.453125 -8.640625 1.609375 -10.441406 1.921875 -12.046875 C 2.242188 -13.648438 2.660156 -15.253906 3.171875 -16.859375 C 3.679688 -18.472656 4.21875 -20.273438 4.78125 -22.265625 C 5.34375 -24.265625 5.878906 -26.628906 6.390625 -29.359375 C 6.898438 -32.085938 7.3125 -35.335938 7.625 -39.109375 C 7.945312 -42.878906 8.109375 -47.367188 8.109375 -52.578125 Z M 8.109375 -52.578125 "/></g></g></g></svg>